<svg width="607" height="570" viewBox="0 0 607 570" fill="none" xmlns="http://www.w3.org/2000/svg">
<path fill-rule="evenodd" clip-rule="evenodd" d="M302.631 449.775C412.947 449.775 502.375 360.346 502.375 250.031C502.375 139.715 412.947 50.2871 302.631 50.2871C192.316 50.2871 102.888 139.715 102.888 250.031C102.888 360.346 192.316 449.775 302.631 449.775ZM302.631 454.366C415.483 454.366 506.967 362.882 506.967 250.031C506.967 137.179 415.483 45.6953 302.631 45.6953C189.78 45.6953 98.2959 137.179 98.2959 250.031C98.2959 362.882 189.78 454.366 302.631 454.366Z" fill="url(#paint0_linear_886_1463)"/>
<path d="M275.929 194.541L268.004 15.083H331.409L323.483 194.541H275.929Z" fill="url(#paint1_linear_886_1463)"/>
<path d="M350.09 245.845L509.468 328.71L477.765 383.62L326.313 287.027L350.09 245.845Z" fill="url(#paint2_linear_886_1463)"/>
<path d="M322.35 290.214L330.275 469.672H266.871L274.796 290.214H322.35Z" fill="url(#paint3_linear_886_1463)"/>
<path d="M272.267 287.597L120.814 384.189L89.1121 329.279L248.49 246.414L272.267 287.597Z" fill="url(#paint4_linear_886_1463)"/>
<path d="M350.09 239.194L509.468 156.329L477.765 101.419L326.313 198.012L350.09 239.194Z" fill="url(#paint5_linear_886_1463)"/>
<path d="M272.267 197.442L120.814 100.85L89.1121 155.76L248.49 238.625L272.267 197.442Z" fill="url(#paint6_linear_886_1463)"/>
<g filter="url(#filter0_dd_886_1463)">
<path d="M245.964 208.983H358.718V464.669C358.718 467.462 355.606 469.127 353.282 467.578L303.795 434.587C302.915 434 301.767 434 300.886 434.587L251.399 467.578C249.076 469.127 245.964 467.462 245.964 464.669V208.983Z" fill="url(#paint7_linear_886_1463)"/>
<path fill-rule="evenodd" clip-rule="evenodd" d="M319.385 444.98L303.795 434.587C302.915 434 301.767 434 300.886 434.587L285.297 444.98V208.983H319.385V444.98Z" fill="url(#paint8_linear_886_1463)"/>
<path fill-rule="evenodd" clip-rule="evenodd" d="M280.927 447.894L277.431 450.225V208.983H280.927V447.894Z" fill="url(#paint9_linear_886_1463)"/>
<path fill-rule="evenodd" clip-rule="evenodd" d="M327.251 450.225L323.755 447.894V208.983H327.251V450.225Z" fill="url(#paint10_linear_886_1463)"/>
<path fill-rule="evenodd" clip-rule="evenodd" d="M358.718 465.014V458.022C358.718 460.814 355.606 462.48 353.282 460.931L303.795 427.939C302.915 427.352 301.767 427.352 300.886 427.939L251.399 460.931C249.076 462.48 245.964 460.814 245.964 458.022V465.014C245.964 467.807 249.076 469.472 251.399 467.923L300.886 434.932C301.767 434.345 302.915 434.345 303.795 434.932L353.282 467.923C355.606 469.472 358.718 467.807 358.718 465.014Z" fill="#1D2462" fill-opacity="0.2"/>
<g opacity="0.8" filter="url(#filter1_f_886_1463)">
<path d="M302.688 416.988L358.816 383.997V371.625H245.963V383.997L302.688 416.988Z" fill="#1A375E" fill-opacity="0.68"/>
</g>
<path d="M293.403 88.8494L173.911 153.852C167.858 157.144 164.09 163.484 164.09 170.374L164.09 318.963C164.09 325.853 167.858 332.192 173.911 335.485L293.403 400.487C299.007 403.536 305.775 403.536 311.379 400.487L430.871 335.485C436.924 332.192 440.692 325.853 440.692 318.963L440.692 170.374C440.692 163.484 436.924 157.145 430.871 153.852L311.379 88.8494C305.775 85.8007 299.007 85.8007 293.403 88.8494Z" fill="url(#paint11_linear_886_1463)"/>
<path d="M293.271 113.172L194.896 166.687C188.866 169.967 185.112 176.282 185.112 183.147L185.112 305.631C185.112 312.495 188.866 318.811 194.896 322.091L293.271 375.606C298.855 378.643 305.597 378.643 311.18 375.606L409.555 322.091C415.585 318.811 419.339 312.495 419.339 305.631L419.339 183.147C419.339 176.282 415.585 169.967 409.555 166.687L311.18 113.172C305.597 110.135 298.855 110.135 293.271 113.172Z" fill="url(#paint12_linear_886_1463)"/>
<g filter="url(#filter2_f_886_1463)">
<path d="M293.271 113.172L194.896 166.687C188.866 169.967 185.112 176.282 185.112 183.147L185.112 305.631C185.112 312.495 188.866 318.811 194.896 322.091L293.271 375.606C298.855 378.643 305.597 378.643 311.18 375.606L409.555 322.091C415.585 318.811 419.339 312.495 419.339 305.631L419.339 183.147C419.339 176.282 415.585 169.967 409.555 166.687L311.18 113.172C305.597 110.135 298.855 110.135 293.271 113.172Z" stroke="url(#paint13_linear_886_1463)" stroke-width="1.10641"/>
</g>
<g opacity="0.5">
<mask id="mask0_886_1463" style="mask-type:alpha" maskUnits="userSpaceOnUse" x="195" y="121" width="216" height="247">
<path d="M294.433 123.991L204.382 172.934C198.643 176.053 195.069 182.062 195.069 188.594L195.069 300.616C195.069 307.148 198.643 313.157 204.382 316.276L294.433 365.219C299.74 368.104 306.148 368.104 311.456 365.219L401.506 316.276C407.246 313.157 410.819 307.148 410.819 300.616L410.819 188.594C410.819 182.062 407.246 176.053 401.506 172.934L311.456 123.991C306.148 121.107 299.74 121.107 294.433 123.991Z" fill="#A6D3DE"/>
</mask>
<g mask="url(#mask0_886_1463)">
<path d="M294.433 123.991L204.382 172.934C198.643 176.053 195.069 182.062 195.069 188.594L195.069 300.616C195.069 307.148 198.643 313.157 204.382 316.276L294.433 365.219C299.74 368.104 306.148 368.104 311.456 365.219L401.506 316.276C407.246 313.157 410.819 307.148 410.819 300.616L410.819 188.594C410.819 182.062 407.246 176.053 401.506 172.934L311.456 123.991C306.148 121.107 299.74 121.107 294.433 123.991Z" fill="url(#paint14_radial_886_1463)"/>
<path opacity="0.5" d="M284.912 374.793L280.627 114.405H325.265L320.98 374.793H284.912Z" fill="url(#paint15_linear_886_1463)"/>
<path opacity="0.5" d="M284.338 372.482L150.434 149.123L189.091 126.804L315.574 354.449L284.338 372.482Z" fill="url(#paint16_linear_886_1463)"/>
<path opacity="0.5" d="M280.618 354.449L407.101 126.805L445.758 149.124L311.853 372.483L280.618 354.449Z" fill="url(#paint17_linear_886_1463)"/>
<rect x="195.071" y="229.72" width="215.749" height="140.113" fill="url(#paint18_linear_886_1463)"/>
<g filter="url(#filter3_i_886_1463)">
<path d="M294.433 123.991L204.382 172.934C198.643 176.053 195.069 182.062 195.069 188.594L195.069 300.616C195.069 307.148 198.643 313.157 204.382 316.276L294.433 365.219C299.74 368.104 306.148 368.104 311.456 365.219L401.506 316.276C407.246 313.157 410.819 307.148 410.819 300.616L410.819 188.594C410.819 182.062 407.246 176.053 401.506 172.934L311.456 123.991C306.148 121.107 299.74 121.107 294.433 123.991Z" fill="#6052B4" fill-opacity="0.01"/>
</g>
</g>
</g>
<g filter="url(#filter4_d_886_1463)">
<path d="M479.179 248.097L419.885 265.75L415.547 273.34L479.179 248.097Z" fill="url(#paint19_linear_886_1463)"/>
<g filter="url(#filter5_d_886_1463)">
<path fill-rule="evenodd" clip-rule="evenodd" d="M417.37 269.815C406.038 287.189 387.554 305.458 359.006 323.541C347.719 330.69 338.055 337.336 329.826 343.505C468.544 347.193 510.637 273.454 514.51 235.374L417.37 269.815Z" fill="url(#paint20_linear_886_1463)"/>
</g>
<path d="M330.495 342.834C338.579 336.806 348.026 330.325 359.01 323.368C387.433 305.364 405.88 287.175 417.225 269.869L514.511 235.376" stroke="url(#paint21_linear_886_1463)" stroke-width="1.86044"/>
<path d="M422.217 316.994L388.927 300.96L382.503 306.105L422.217 316.994Z" fill="url(#paint22_linear_886_1463)"/>
<path fill-rule="evenodd" clip-rule="evenodd" d="M386.385 303.549C378.506 310.145 369.428 316.769 359.01 323.368C333.397 339.592 316.141 353.222 305.037 364.574C306.564 367.849 314.427 367.205 326.077 359.825C349.692 344.867 370.943 341.786 408.55 342.532C445.094 343.256 456.253 338.963 462.526 332.214C447.435 326.196 409.714 311.979 386.385 303.549Z" fill="url(#paint23_linear_886_1463)"/>
<path d="M359.508 324.154C369.777 317.65 378.753 311.117 386.571 304.606C409.279 312.819 445.142 326.328 460.877 332.559C454.703 338.428 443.246 342.289 408.568 341.601C370.894 340.855 349.423 343.936 325.58 359.039C319.811 362.693 315.046 364.636 311.59 365.28C309.86 365.603 308.515 365.59 307.557 365.349C306.949 365.196 306.524 364.962 306.237 364.681C317.289 353.508 334.336 340.098 359.508 324.154Z" stroke="url(#paint24_linear_886_1463)" stroke-width="1.86044"/>
<g filter="url(#filter6_d_886_1463)">
<path d="M292.044 384.378C304.365 370.238 299.114 372.809 366.491 318.82C393.804 302.318 410.176 283.415 420.224 266.881C420.224 265.411 420.224 265.411 417.625 267.624C408.677 281.417 394.693 296.587 370.99 313.035C327.285 340.03 296.648 368.096 288.721 379.879L292.044 384.378Z" fill="url(#paint25_linear_886_1463)"/>
<path d="M288.721 385.021C293.22 375.809 317.13 349.928 366.491 320.105C394.425 302.463 411.008 282.509 421.05 265.411C420.224 264.858 419.671 265.411 417.999 266.518C407.457 282.399 390.442 300.606 361.992 318.177C318.287 345.172 295.363 368.739 287.436 380.522L288.721 385.021Z" fill="#C4C4C4"/>
<path fill-rule="evenodd" clip-rule="evenodd" d="M361.654 317.63C412.488 286.232 426.666 252.837 432.724 234.421L433.945 234.823C427.814 253.461 413.475 287.134 362.329 318.724C318.666 345.692 295.825 369.201 287.968 380.88L286.901 380.163C294.899 368.275 317.906 344.651 361.654 317.63Z" fill="url(#paint26_linear_886_1463)"/>
<path fill-rule="evenodd" clip-rule="evenodd" d="M391.999 300.823C384.765 307.387 376.332 313.889 366.491 320.105C359.068 324.59 352.22 328.986 345.928 333.249L342.939 330.593C348.794 326.56 355.137 322.41 361.992 318.177C371.303 312.426 379.39 306.607 386.425 300.823H391.999Z" fill="url(#paint27_linear_886_1463)"/>
</g>
</g>
<g filter="url(#filter7_d_886_1463)">
<path d="M127.988 248.096L187.282 265.749L191.62 273.339L127.988 248.096Z" fill="url(#paint28_linear_886_1463)"/>
<g filter="url(#filter8_d_886_1463)">
<path fill-rule="evenodd" clip-rule="evenodd" d="M189.798 269.815C201.13 287.189 219.614 305.458 248.162 323.541C259.448 330.69 269.112 337.336 277.342 343.505C138.624 347.193 96.5305 273.454 92.6583 235.374L189.798 269.815Z" fill="url(#paint29_linear_886_1463)"/>
</g>
<path d="M276.671 342.833C268.587 336.805 259.14 330.324 248.156 323.367C219.733 305.363 201.286 287.174 189.941 269.868L92.6553 235.375" stroke="url(#paint30_linear_886_1463)" stroke-width="1.86044"/>
<path d="M184.95 316.994L218.24 300.96L224.664 306.105L184.95 316.994Z" fill="url(#paint31_linear_886_1463)"/>
<path fill-rule="evenodd" clip-rule="evenodd" d="M220.782 303.548C228.661 310.145 237.739 316.768 248.157 323.367C273.77 339.591 291.026 353.221 302.13 364.573C300.603 367.848 292.74 367.204 281.09 359.824C257.475 344.866 236.224 341.785 198.617 342.531C162.073 343.255 150.914 338.962 144.641 332.213C159.732 326.195 197.453 311.978 220.782 303.548Z" fill="url(#paint32_linear_886_1463)"/>
<path d="M247.659 324.153C237.39 317.649 228.414 311.116 220.596 304.605C197.888 312.818 162.025 326.327 146.29 332.558C152.464 338.427 163.921 342.288 198.599 341.601C236.273 340.854 257.744 343.935 281.587 359.038C287.356 362.692 292.121 364.635 295.577 365.279C297.307 365.602 298.652 365.589 299.61 365.348C300.218 365.195 300.643 364.961 300.93 364.68C289.878 353.507 272.831 340.097 247.659 324.153Z" stroke="url(#paint33_linear_886_1463)" stroke-width="1.86044"/>
<g filter="url(#filter9_d_886_1463)">
<path d="M315.123 384.378C302.802 370.238 308.053 372.809 240.676 318.82C213.363 302.318 196.991 283.415 186.943 266.881C186.943 265.411 186.943 265.411 189.542 267.624C198.49 281.417 212.474 296.587 236.177 313.035C279.882 340.03 310.519 368.096 318.446 379.879L315.123 384.378Z" fill="url(#paint34_linear_886_1463)"/>
<path d="M318.447 385.021C313.948 375.809 290.038 349.928 240.677 320.105C212.743 302.463 196.16 282.509 186.118 265.411C186.944 264.858 187.497 265.411 189.169 266.518C199.711 282.399 216.726 300.606 245.176 318.177C288.881 345.172 311.805 368.739 319.732 380.522L318.447 385.021Z" fill="#C4C4C4"/>
<path fill-rule="evenodd" clip-rule="evenodd" d="M245.514 317.63C194.68 286.232 180.502 252.837 174.444 234.421L173.223 234.823C179.354 253.461 193.693 287.134 244.839 318.724C288.502 345.692 311.343 369.201 319.2 380.88L320.267 380.163C312.269 368.275 289.262 344.651 245.514 317.63Z" fill="url(#paint35_linear_886_1463)"/>
<path fill-rule="evenodd" clip-rule="evenodd" d="M215.168 300.823C222.403 307.387 230.836 313.89 240.678 320.106C248.101 324.591 254.948 328.986 261.24 333.25L264.229 330.593C258.374 326.561 252.031 322.411 245.177 318.178C235.865 312.426 227.778 306.607 220.742 300.823H215.168Z" fill="url(#paint36_linear_886_1463)"/>
</g>
</g>
<g filter="url(#filter10_f_886_1463)">
<path d="M302.39 329.583L328.943 393.755H275.836L302.39 329.583Z" fill="url(#paint37_linear_886_1463)"/>
</g>
<mask id="mask1_886_1463" style="mask-type:alpha" maskUnits="userSpaceOnUse" x="275" y="348" width="55" height="58">
<path fill-rule="evenodd" clip-rule="evenodd" d="M302.447 405.858C302.447 405.858 302.448 405.858 302.448 405.858L302.448 405.858C302.448 405.858 302.448 405.858 302.448 405.858C302.448 405.858 302.448 405.858 302.448 405.858L327.708 396.488C329.552 395.803 330.312 393.604 329.283 391.927L302.448 348.213C302.448 348.213 302.448 348.213 302.448 348.213L302.448 348.211C302.448 348.211 302.448 348.211 302.448 348.211C302.448 348.212 302.447 348.212 302.447 348.211C302.447 348.211 302.447 348.211 302.447 348.211L302.447 348.213C302.447 348.213 302.447 348.213 302.447 348.213L275.612 391.927C274.583 393.604 275.343 395.803 277.187 396.488L302.447 405.858C302.447 405.858 302.447 405.858 302.447 405.858C302.447 405.858 302.447 405.858 302.447 405.858L302.447 405.858Z" fill="url(#paint38_linear_886_1463)"/>
</mask>
<g mask="url(#mask1_886_1463)">
<path d="M302.603 407.064L331.174 395.33L302.603 343.8L302.603 407.064Z" fill="url(#paint39_linear_886_1463)"/>
<path d="M302.603 407.063L274.032 395.329L302.603 343.799L302.603 407.063Z" fill="url(#paint40_linear_886_1463)"/>
</g>
</g>
<g opacity="0.5" filter="url(#filter11_f_886_1463)">
<circle cx="301.866" cy="48.7552" r="6.12241" fill="url(#paint41_radial_886_1463)"/>
</g>
<g filter="url(#filter12_f_886_1463)">
<path d="M301.866 33.4492L303.132 46.6537L315.642 47.9899L303.132 49.3262L301.866 62.5307L300.6 49.3262L288.091 47.9899L300.6 46.6537L301.866 33.4492Z" fill="#E8F2FF"/>
</g>
<defs>
<filter id="filter0_dd_886_1463" x="0.50853" y="0.848716" width="606.149" height="568.312" filterUnits="userSpaceOnUse" color-interpolation-filters="sRGB">
<feFlood flood-opacity="0" result="BackgroundImageFix"/>
<feColorMatrix in="SourceAlpha" type="matrix" values="0 0 0 0 0 0 0 0 0 0 0 0 0 0 0 0 0 0 127 0" result="hardAlpha"/>
<feOffset/>
<feGaussianBlur stdDeviation="15.306"/>
<feColorMatrix type="matrix" values="0 0 0 0 0.558594 0 0 0 0 0.710156 0 0 0 0 0.9375 0 0 0 1 0"/>
<feBlend mode="normal" in2="BackgroundImageFix" result="effect1_dropShadow_886_1463"/>
<feColorMatrix in="SourceAlpha" type="matrix" values="0 0 0 0 0 0 0 0 0 0 0 0 0 0 0 0 0 0 127 0" result="hardAlpha"/>
<feOffset dy="6.12241"/>
<feGaussianBlur stdDeviation="45.9181"/>
<feColorMatrix type="matrix" values="0 0 0 0 0.670833 0 0 0 0 0.8025 0 0 0 0 1 0 0 0 0.6 0"/>
<feBlend mode="normal" in2="effect1_dropShadow_886_1463" result="effect2_dropShadow_886_1463"/>
<feBlend mode="normal" in="SourceGraphic" in2="effect2_dropShadow_886_1463" result="shape"/>
</filter>
<filter id="filter1_f_886_1463" x="242.644" y="368.306" width="119.492" height="52.0007" filterUnits="userSpaceOnUse" color-interpolation-filters="sRGB">
<feFlood flood-opacity="0" result="BackgroundImageFix"/>
<feBlend mode="normal" in="SourceGraphic" in2="BackgroundImageFix" result="shape"/>
<feGaussianBlur stdDeviation="1.65961" result="effect1_foregroundBlur_886_1463"/>
</filter>
<filter id="filter2_f_886_1463" x="184.228" y="110.009" width="235.997" height="268.761" filterUnits="userSpaceOnUse" color-interpolation-filters="sRGB">
<feFlood flood-opacity="0" result="BackgroundImageFix"/>
<feBlend mode="normal" in="SourceGraphic" in2="BackgroundImageFix" result="shape"/>
<feGaussianBlur stdDeviation="0.165961" result="effect1_foregroundBlur_886_1463"/>
</filter>
<filter id="filter3_i_886_1463" x="195.069" y="121.828" width="215.749" height="245.555" filterUnits="userSpaceOnUse" color-interpolation-filters="sRGB">
<feFlood flood-opacity="0" result="BackgroundImageFix"/>
<feBlend mode="normal" in="SourceGraphic" in2="BackgroundImageFix" result="shape"/>
<feColorMatrix in="SourceAlpha" type="matrix" values="0 0 0 0 0 0 0 0 0 0 0 0 0 0 0 0 0 0 127 0" result="hardAlpha"/>
<feOffset/>
<feGaussianBlur stdDeviation="7.43963"/>
<feComposite in2="hardAlpha" operator="arithmetic" k2="-1" k3="1"/>
<feColorMatrix type="matrix" values="0 0 0 0 0.297222 0 0 0 0 0.329917 0 0 0 0 0.445833 0 0 0 1 0"/>
<feBlend mode="normal" in2="shape" result="effect1_innerShadow_886_1463"/>
</filter>
<filter id="filter4_d_886_1463" x="281.76" y="234.421" width="238.204" height="160.884" filterUnits="userSpaceOnUse" color-interpolation-filters="sRGB">
<feFlood flood-opacity="0" result="BackgroundImageFix"/>
<feColorMatrix in="SourceAlpha" type="matrix" values="0 0 0 0 0 0 0 0 0 0 0 0 0 0 0 0 0 0 127 0" result="hardAlpha"/>
<feOffset dy="5.14185"/>
<feGaussianBlur stdDeviation="2.57092"/>
<feColorMatrix type="matrix" values="0 0 0 0 0.214861 0 0 0 0 0.236708 0 0 0 0 0.433333 0 0 0 0.25 0"/>
<feBlend mode="normal" in2="BackgroundImageFix" result="effect1_dropShadow_886_1463"/>
<feBlend mode="normal" in="SourceGraphic" in2="effect1_dropShadow_886_1463" result="shape"/>
</filter>
<filter id="filter5_d_886_1463" x="317.423" y="220.4" width="209.49" height="133.07" filterUnits="userSpaceOnUse" color-interpolation-filters="sRGB">
<feFlood flood-opacity="0" result="BackgroundImageFix"/>
<feColorMatrix in="SourceAlpha" type="matrix" values="0 0 0 0 0 0 0 0 0 0 0 0 0 0 0 0 0 0 127 0" result="hardAlpha"/>
<feOffset dy="-2.57092"/>
<feGaussianBlur stdDeviation="6.20148"/>
<feColorMatrix type="matrix" values="0 0 0 0 0.365689 0 0 0 0 0.351111 0 0 0 0 0.533333 0 0 0 0.2 0"/>
<feBlend mode="normal" in2="BackgroundImageFix" result="effect1_dropShadow_886_1463"/>
<feBlend mode="normal" in="SourceGraphic" in2="effect1_dropShadow_886_1463" result="shape"/>
</filter>
<filter id="filter6_d_886_1463" x="283.045" y="233.135" width="154.757" height="158.313" filterUnits="userSpaceOnUse" color-interpolation-filters="sRGB">
<feFlood flood-opacity="0" result="BackgroundImageFix"/>
<feColorMatrix in="SourceAlpha" type="matrix" values="0 0 0 0 0 0 0 0 0 0 0 0 0 0 0 0 0 0 127 0" result="hardAlpha"/>
<feOffset dy="2.57092"/>
<feGaussianBlur stdDeviation="1.92819"/>
<feColorMatrix type="matrix" values="0 0 0 0 0.302882 0 0 0 0 0.323427 0 0 0 0 0.508333 0 0 0 0.25 0"/>
<feBlend mode="normal" in2="BackgroundImageFix" result="effect1_dropShadow_886_1463"/>
<feBlend mode="normal" in="SourceGraphic" in2="effect1_dropShadow_886_1463" result="shape"/>
</filter>
<filter id="filter7_d_886_1463" x="87.2029" y="234.421" width="238.206" height="160.884" filterUnits="userSpaceOnUse" color-interpolation-filters="sRGB">
<feFlood flood-opacity="0" result="BackgroundImageFix"/>
<feColorMatrix in="SourceAlpha" type="matrix" values="0 0 0 0 0 0 0 0 0 0 0 0 0 0 0 0 0 0 127 0" result="hardAlpha"/>
<feOffset dy="5.14185"/>
<feGaussianBlur stdDeviation="2.57092"/>
<feColorMatrix type="matrix" values="0 0 0 0 0.214861 0 0 0 0 0.236708 0 0 0 0 0.433333 0 0 0 0.25 0"/>
<feBlend mode="normal" in2="BackgroundImageFix" result="effect1_dropShadow_886_1463"/>
<feBlend mode="normal" in="SourceGraphic" in2="effect1_dropShadow_886_1463" result="shape"/>
</filter>
<filter id="filter8_d_886_1463" x="80.2552" y="220.4" width="209.49" height="133.071" filterUnits="userSpaceOnUse" color-interpolation-filters="sRGB">
<feFlood flood-opacity="0" result="BackgroundImageFix"/>
<feColorMatrix in="SourceAlpha" type="matrix" values="0 0 0 0 0 0 0 0 0 0 0 0 0 0 0 0 0 0 127 0" result="hardAlpha"/>
<feOffset dy="-2.57092"/>
<feGaussianBlur stdDeviation="6.20148"/>
<feColorMatrix type="matrix" values="0 0 0 0 0.365689 0 0 0 0 0.351111 0 0 0 0 0.533333 0 0 0 0.2 0"/>
<feBlend mode="normal" in2="BackgroundImageFix" result="effect1_dropShadow_886_1463"/>
<feBlend mode="normal" in="SourceGraphic" in2="effect1_dropShadow_886_1463" result="shape"/>
</filter>
<filter id="filter9_d_886_1463" x="169.366" y="233.135" width="154.757" height="158.313" filterUnits="userSpaceOnUse" color-interpolation-filters="sRGB">
<feFlood flood-opacity="0" result="BackgroundImageFix"/>
<feColorMatrix in="SourceAlpha" type="matrix" values="0 0 0 0 0 0 0 0 0 0 0 0 0 0 0 0 0 0 127 0" result="hardAlpha"/>
<feOffset dy="2.57092"/>
<feGaussianBlur stdDeviation="1.92819"/>
<feColorMatrix type="matrix" values="0 0 0 0 0.302882 0 0 0 0 0.323427 0 0 0 0 0.508333 0 0 0 0.25 0"/>
<feBlend mode="normal" in2="BackgroundImageFix" result="effect1_dropShadow_886_1463"/>
<feBlend mode="normal" in="SourceGraphic" in2="effect1_dropShadow_886_1463" result="shape"/>
</filter>
<filter id="filter10_f_886_1463" x="271.41" y="325.157" width="61.9587" height="73.0231" filterUnits="userSpaceOnUse" color-interpolation-filters="sRGB">
<feFlood flood-opacity="0" result="BackgroundImageFix"/>
<feBlend mode="normal" in="SourceGraphic" in2="BackgroundImageFix" result="shape"/>
<feGaussianBlur stdDeviation="2.21281" result="effect1_foregroundBlur_886_1463"/>
</filter>
<filter id="filter11_f_886_1463" x="292.682" y="39.5716" width="18.3675" height="18.3675" filterUnits="userSpaceOnUse" color-interpolation-filters="sRGB">
<feFlood flood-opacity="0" result="BackgroundImageFix"/>
<feBlend mode="normal" in="SourceGraphic" in2="BackgroundImageFix" result="shape"/>
<feGaussianBlur stdDeviation="1.5306" result="effect1_foregroundBlur_886_1463"/>
</filter>
<filter id="filter12_f_886_1463" x="287.172" y="32.5309" width="29.3875" height="30.9178" filterUnits="userSpaceOnUse" color-interpolation-filters="sRGB">
<feFlood flood-opacity="0" result="BackgroundImageFix"/>
<feBlend mode="normal" in="SourceGraphic" in2="BackgroundImageFix" result="shape"/>
<feGaussianBlur stdDeviation="0.459181" result="effect1_foregroundBlur_886_1463"/>
</filter>
<linearGradient id="paint0_linear_886_1463" x1="303.397" y1="47.9912" x2="303.397" y2="375.54" gradientUnits="userSpaceOnUse">
<stop stop-color="#B6CAFF" stop-opacity="0.58"/>
<stop offset="0.0722622" stop-color="#CCDDFF" stop-opacity="0.06"/>
<stop offset="1" stop-color="#56D7E0" stop-opacity="0"/>
</linearGradient>
<linearGradient id="paint1_linear_886_1463" x1="299.706" y1="15.083" x2="299.706" y2="194.541" gradientUnits="userSpaceOnUse">
<stop stop-color="#AACCFF" stop-opacity="0"/>
<stop offset="1" stop-color="#AACCFF" stop-opacity="0.3"/>
</linearGradient>
<linearGradient id="paint2_linear_886_1463" x1="493.617" y1="356.165" x2="338.201" y2="266.436" gradientUnits="userSpaceOnUse">
<stop stop-color="#AACCFF" stop-opacity="0"/>
<stop offset="1" stop-color="#AACCFF" stop-opacity="0.3"/>
</linearGradient>
<linearGradient id="paint3_linear_886_1463" x1="298.573" y1="469.672" x2="298.573" y2="290.214" gradientUnits="userSpaceOnUse">
<stop stop-color="#AACCFF" stop-opacity="0"/>
<stop offset="1" stop-color="#AACCFF" stop-opacity="0.3"/>
</linearGradient>
<linearGradient id="paint4_linear_886_1463" x1="104.963" y1="356.734" x2="260.378" y2="267.005" gradientUnits="userSpaceOnUse">
<stop stop-color="#AACCFF" stop-opacity="0"/>
<stop offset="1" stop-color="#AACCFF" stop-opacity="0.3"/>
</linearGradient>
<linearGradient id="paint5_linear_886_1463" x1="493.617" y1="128.874" x2="338.201" y2="218.603" gradientUnits="userSpaceOnUse">
<stop stop-color="#AACCFF" stop-opacity="0"/>
<stop offset="1" stop-color="#AACCFF" stop-opacity="0.3"/>
</linearGradient>
<linearGradient id="paint6_linear_886_1463" x1="104.963" y1="128.305" x2="260.378" y2="218.034" gradientUnits="userSpaceOnUse">
<stop stop-color="#AACCFF" stop-opacity="0"/>
<stop offset="1" stop-color="#AACCFF" stop-opacity="0.3"/>
</linearGradient>
<linearGradient id="paint7_linear_886_1463" x1="302.778" y1="281.094" x2="302.778" y2="434.928" gradientUnits="userSpaceOnUse">
<stop stop-color="#063988"/>
<stop offset="0.541667" stop-color="#3168BD"/>
<stop offset="0.744062" stop-color="#0764C3"/>
<stop offset="1" stop-color="#063885"/>
</linearGradient>
<linearGradient id="paint8_linear_886_1463" x1="275.728" y1="208.983" x2="275.728" y2="457.521" gradientUnits="userSpaceOnUse">
<stop stop-color="#98B4E1"/>
<stop offset="0.783601" stop-color="#FAFCFF"/>
<stop offset="1" stop-color="#DFE7FF"/>
</linearGradient>
<linearGradient id="paint9_linear_886_1463" x1="276.449" y1="208.983" x2="276.449" y2="463.044" gradientUnits="userSpaceOnUse">
<stop stop-color="#98B4E1"/>
<stop offset="0.783601" stop-color="#FAFCFF"/>
<stop offset="1" stop-color="#DFE7FF"/>
</linearGradient>
<linearGradient id="paint10_linear_886_1463" x1="322.773" y1="208.983" x2="322.773" y2="463.044" gradientUnits="userSpaceOnUse">
<stop stop-color="#98B4E1"/>
<stop offset="0.783601" stop-color="#FAFCFF"/>
<stop offset="1" stop-color="#DFE7FF"/>
</linearGradient>
<linearGradient id="paint11_linear_886_1463" x1="244.304" y1="122.684" x2="368.775" y2="369.966" gradientUnits="userSpaceOnUse">
<stop stop-color="#FAFAFA"/>
<stop offset="1" stop-color="#C2C4CD"/>
</linearGradient>
<linearGradient id="paint12_linear_886_1463" x1="243.199" y1="143.153" x2="350.52" y2="341.2" gradientUnits="userSpaceOnUse">
<stop stop-color="#CDCFD6"/>
<stop offset="1" stop-color="#EFEFF1"/>
</linearGradient>
<linearGradient id="paint13_linear_886_1463" x1="254.816" y1="135.961" x2="370.436" y2="343.966" gradientUnits="userSpaceOnUse">
<stop stop-color="#DDDFE2"/>
<stop offset="1" stop-color="white"/>
</linearGradient>
<radialGradient id="paint14_radial_886_1463" cx="0" cy="0" r="1" gradientUnits="userSpaceOnUse" gradientTransform="translate(302.944 244.605) rotate(90) scale(125.24 107.875)">
<stop stop-color="#F5F7FF"/>
<stop offset="1" stop-color="#B3B5C5"/>
</radialGradient>
<linearGradient id="paint15_linear_886_1463" x1="302.946" y1="114.405" x2="302.946" y2="374.793" gradientUnits="userSpaceOnUse">
<stop stop-color="white"/>
<stop offset="1" stop-color="#F2EDED" stop-opacity="0"/>
</linearGradient>
<linearGradient id="paint16_linear_886_1463" x1="169.762" y1="137.964" x2="299.956" y2="363.466" gradientUnits="userSpaceOnUse">
<stop stop-color="white"/>
<stop offset="1" stop-color="#F2EDED" stop-opacity="0"/>
</linearGradient>
<linearGradient id="paint17_linear_886_1463" x1="426.429" y1="137.964" x2="296.236" y2="363.466" gradientUnits="userSpaceOnUse">
<stop stop-color="white"/>
<stop offset="1" stop-color="#F2EDED" stop-opacity="0"/>
</linearGradient>
<linearGradient id="paint18_linear_886_1463" x1="302.946" y1="290.477" x2="302.295" y2="361.152" gradientUnits="userSpaceOnUse">
<stop stop-color="white" stop-opacity="0"/>
<stop offset="1" stop-color="#D0DBFF"/>
</linearGradient>
<linearGradient id="paint19_linear_886_1463" x1="455.728" y1="274.491" x2="414.967" y2="261.412" gradientUnits="userSpaceOnUse">
<stop offset="0.209488" stop-color="#9196AA"/>
<stop offset="0.583159" stop-color="#C9C9DC"/>
<stop offset="0.986946" stop-color="#797D87"/>
</linearGradient>
<linearGradient id="paint20_linear_886_1463" x1="439.28" y1="258.506" x2="437.764" y2="378.335" gradientUnits="userSpaceOnUse">
<stop stop-color="#EFEFEF"/>
<stop offset="0.411026" stop-color="#DEDFE6"/>
<stop offset="0.58979" stop-color="#D1D2D9"/>
<stop offset="1" stop-color="#D1D2D9"/>
</linearGradient>
<linearGradient id="paint21_linear_886_1463" x1="506.715" y1="241.228" x2="439.88" y2="314.527" gradientUnits="userSpaceOnUse">
<stop stop-color="#F8F8F9" stop-opacity="0.86"/>
<stop offset="0.319253" stop-color="#F8F8F9"/>
<stop offset="0.615431" stop-color="white" stop-opacity="0.88"/>
<stop offset="0.867925" stop-color="white"/>
</linearGradient>
<linearGradient id="paint22_linear_886_1463" x1="410.445" y1="312.648" x2="384.389" y2="297.934" gradientUnits="userSpaceOnUse">
<stop offset="0.209488" stop-color="#717995"/>
<stop offset="0.583159" stop-color="#A4A5BB"/>
<stop offset="0.986946" stop-color="#797D87"/>
</linearGradient>
<linearGradient id="paint23_linear_886_1463" x1="391.019" y1="304.276" x2="398.056" y2="382.726" gradientUnits="userSpaceOnUse">
<stop offset="0.0306468" stop-color="#DBDCE7"/>
<stop offset="0.274204" stop-color="#CBCCD7"/>
<stop offset="0.675444" stop-color="#D1D2D9"/>
</linearGradient>
<linearGradient id="paint24_linear_886_1463" x1="405.411" y1="307.472" x2="374.631" y2="390.816" gradientUnits="userSpaceOnUse">
<stop stop-color="#F8F8F9" stop-opacity="0.78"/>
<stop offset="0.319253" stop-color="#F8F8F9" stop-opacity="0"/>
<stop offset="0.615431" stop-color="white" stop-opacity="0"/>
<stop offset="0.867925" stop-color="white" stop-opacity="0"/>
</linearGradient>
<linearGradient id="paint25_linear_886_1463" x1="361.671" y1="233.979" x2="361.671" y2="385.021" gradientUnits="userSpaceOnUse">
<stop stop-color="#C4C4C4"/>
<stop offset="1" stop-color="#63687B"/>
</linearGradient>
<linearGradient id="paint26_linear_886_1463" x1="374.846" y1="304.679" x2="351.708" y2="333.602" gradientUnits="userSpaceOnUse">
<stop stop-color="white" stop-opacity="0"/>
<stop offset="0.445395" stop-color="white"/>
<stop offset="1" stop-color="white" stop-opacity="0"/>
</linearGradient>
<linearGradient id="paint27_linear_886_1463" x1="365.848" y1="305.965" x2="367.469" y2="333.249" gradientUnits="userSpaceOnUse">
<stop offset="0.0495744" stop-color="#C4C4C4"/>
<stop offset="0.454268" stop-color="#EDEDED"/>
<stop offset="1" stop-color="#C4C4C4" stop-opacity="0"/>
</linearGradient>
<linearGradient id="paint28_linear_886_1463" x1="151.439" y1="274.49" x2="192.2" y2="261.411" gradientUnits="userSpaceOnUse">
<stop offset="0.209488" stop-color="#9196AA"/>
<stop offset="0.583159" stop-color="#C9C9DC"/>
<stop offset="0.986946" stop-color="#797D87"/>
</linearGradient>
<linearGradient id="paint29_linear_886_1463" x1="167.888" y1="258.506" x2="169.404" y2="378.335" gradientUnits="userSpaceOnUse">
<stop stop-color="#EFEFEF"/>
<stop offset="0.411026" stop-color="#DEDFE6"/>
<stop offset="0.58979" stop-color="#D1D2D9"/>
<stop offset="1" stop-color="#D1D2D9"/>
</linearGradient>
<linearGradient id="paint30_linear_886_1463" x1="100.451" y1="241.227" x2="167.286" y2="314.526" gradientUnits="userSpaceOnUse">
<stop stop-color="#F8F8F9" stop-opacity="0.86"/>
<stop offset="0.319253" stop-color="#F8F8F9"/>
<stop offset="0.615431" stop-color="white" stop-opacity="0.88"/>
<stop offset="0.867925" stop-color="white"/>
</linearGradient>
<linearGradient id="paint31_linear_886_1463" x1="196.722" y1="312.648" x2="222.778" y2="297.934" gradientUnits="userSpaceOnUse">
<stop offset="0.209488" stop-color="#717995"/>
<stop offset="0.583159" stop-color="#A4A5BB"/>
<stop offset="0.986946" stop-color="#797D87"/>
</linearGradient>
<linearGradient id="paint32_linear_886_1463" x1="216.148" y1="304.275" x2="209.111" y2="382.725" gradientUnits="userSpaceOnUse">
<stop offset="0.0306468" stop-color="#DBDCE7"/>
<stop offset="0.274204" stop-color="#CBCCD7"/>
<stop offset="0.675444" stop-color="#D1D2D9"/>
</linearGradient>
<linearGradient id="paint33_linear_886_1463" x1="201.756" y1="307.471" x2="232.537" y2="390.815" gradientUnits="userSpaceOnUse">
<stop stop-color="#F8F8F9" stop-opacity="0.78"/>
<stop offset="0.319253" stop-color="#F8F8F9" stop-opacity="0"/>
<stop offset="0.615431" stop-color="white" stop-opacity="0"/>
<stop offset="0.867925" stop-color="white" stop-opacity="0"/>
</linearGradient>
<linearGradient id="paint34_linear_886_1463" x1="245.496" y1="233.979" x2="245.496" y2="385.021" gradientUnits="userSpaceOnUse">
<stop stop-color="#C4C4C4"/>
<stop offset="1" stop-color="#63687B"/>
</linearGradient>
<linearGradient id="paint35_linear_886_1463" x1="232.322" y1="304.679" x2="255.46" y2="333.602" gradientUnits="userSpaceOnUse">
<stop stop-color="white" stop-opacity="0"/>
<stop offset="0.445395" stop-color="white"/>
<stop offset="1" stop-color="white" stop-opacity="0"/>
</linearGradient>
<linearGradient id="paint36_linear_886_1463" x1="241.32" y1="305.965" x2="239.698" y2="333.25" gradientUnits="userSpaceOnUse">
<stop offset="0.0495744" stop-color="#C4C4C4"/>
<stop offset="0.454268" stop-color="#EDEDED"/>
<stop offset="1" stop-color="#C4C4C4" stop-opacity="0"/>
</linearGradient>
<linearGradient id="paint37_linear_886_1463" x1="302.39" y1="394.303" x2="302.39" y2="350.425" gradientUnits="userSpaceOnUse">
<stop stop-color="#585B77" stop-opacity="0.75"/>
<stop offset="1" stop-color="#525787" stop-opacity="0"/>
</linearGradient>
<linearGradient id="paint38_linear_886_1463" x1="305.166" y1="363.87" x2="285.977" y2="390.904" gradientUnits="userSpaceOnUse">
<stop stop-color="#D5D7D9"/>
<stop offset="1" stop-color="#E2E3E7"/>
</linearGradient>
<linearGradient id="paint39_linear_886_1463" x1="302.924" y1="376.87" x2="330.987" y2="370.098" gradientUnits="userSpaceOnUse">
<stop stop-color="#DBDCE1"/>
<stop offset="1" stop-color="#F2F3F8"/>
</linearGradient>
<linearGradient id="paint40_linear_886_1463" x1="284.539" y1="357.984" x2="309.618" y2="353.912" gradientUnits="userSpaceOnUse">
<stop stop-color="#F4F5F8"/>
<stop offset="1" stop-color="#F5F6F7"/>
</linearGradient>
<radialGradient id="paint41_radial_886_1463" cx="0" cy="0" r="1" gradientUnits="userSpaceOnUse" gradientTransform="translate(301.866 48.7552) rotate(90) scale(9.79586)">
<stop stop-color="#E7ECFF"/>
<stop offset="0.979167" stop-color="#ABC3FF" stop-opacity="0.8825"/>
<stop offset="1" stop-color="#AACCFF" stop-opacity="0.88"/>
</radialGradient>
</defs>
</svg>
